<mxfile host="app.diagrams.net" modified="2024-03-19T14:37:12.909Z" agent="Mozilla/5.0 (Windows NT 10.0; Win64; x64) AppleWebKit/537.36 (KHTML, like Gecko) Chrome/122.0.0.0 Safari/537.36" version="24.0.7" etag="KblQR8juWSMF_sFRBtLi" type="github">
  <diagram name="Page-1" id="Xo1gjVz9K3jSi7nFIskZ">
    <mxGraphModel>
      <root>
        <mxCell id="0" />
        <mxCell id="1" parent="0" />
      </root>
    </mxGraphModel>
  </diagram>
</mxfile>
